<svg width="318" height="215" viewBox="0 0 318 215" fill="none" xmlns="http://www.w3.org/2000/svg">
<path fill-rule="evenodd" clip-rule="evenodd" d="M318 107.5C318 67.8594 303.443 31.5825 279.363 3.76892C277.299 1.41797 274.656 0.11591 271.542 0.0074049C268.428 -0.1011 265.676 0.983953 263.467 3.19023L251.699 14.945C247.679 18.9597 247.426 25.3253 251.083 29.6294C268.899 50.6432 279.653 77.8057 279.653 107.5C279.653 121.461 277.263 134.916 272.882 147.394C271.832 150.396 269.768 152.566 266.835 153.796C263.902 155.025 260.896 154.989 258.036 153.615L211.505 131.95C206.725 129.707 204.263 124.535 205.567 119.436C206.544 115.638 207.051 111.623 207.051 107.5C207.051 80.9885 185.542 59.5045 159 59.5045C132.458 59.5045 110.949 80.9885 110.949 107.5C110.949 111.623 111.456 115.602 112.433 119.436C113.737 124.535 111.275 129.744 106.495 131.95L59.9645 153.615C57.0676 154.953 54.0984 155.025 51.1653 153.796C48.2323 152.566 46.1683 150.396 45.1182 147.394C40.7367 134.916 38.3468 121.497 38.3468 107.5C38.3468 77.8057 49.1013 50.6432 66.9169 29.6294C70.5741 25.3253 70.3207 18.9597 66.3013 14.945L54.5329 3.19023C52.3241 0.983953 49.5721 -0.1011 46.458 0.0074049C43.3439 0.11591 40.6643 1.38181 38.6365 3.76892C14.5566 31.5825 0 67.8594 0 107.5C0 147.141 14.5566 183.418 38.6365 211.231C40.7005 213.582 43.3439 214.884 46.458 214.993C49.5721 215.101 52.3241 214.016 54.5329 211.81L56.4883 209.857L73.652 192.713L118.01 148.406C121.739 144.681 127.461 144.139 131.842 147.141C139.555 152.421 148.897 155.532 158.964 155.532C169.03 155.532 178.373 152.457 186.085 147.141C190.431 144.175 196.188 144.681 199.918 148.406L244.276 192.713L261.439 209.857L263.395 211.81C265.603 214.016 268.355 215.101 271.47 214.993C274.584 214.884 277.263 213.618 279.291 211.231C303.371 183.418 317.928 147.141 317.928 107.5H318Z" fill="white"/>
</svg>
