<svg width="545" height="545" viewBox="0 0 545 545" fill="none" xmlns="http://www.w3.org/2000/svg">
<g clip-path="url(#clip0_45_2)">
<path d="M272.11 0C2.09998 0 0 121.83 0 272.11C0 422.39 2.09998 544.22 272.11 544.22C542.12 544.22 544.22 422.39 544.22 272.11C544.22 121.83 542.12 0 272.11 0Z" fill="#00A1D5"/>
<path fill-rule="evenodd" clip-rule="evenodd" d="M431 272.5C431 232.859 416.443 196.582 392.363 168.769C390.299 166.418 387.656 165.116 384.542 165.007C381.428 164.899 378.676 165.984 376.467 168.19L364.699 179.945C360.679 183.96 360.426 190.325 364.083 194.629C381.899 215.643 392.653 242.806 392.653 272.5C392.653 286.461 390.263 299.916 385.882 312.394C384.832 315.396 382.768 317.566 379.835 318.796C376.902 320.025 373.896 319.989 371.036 318.615L324.505 296.95C319.725 294.707 317.263 289.535 318.567 284.436C319.544 280.638 320.051 276.623 320.051 272.5C320.051 245.989 298.542 224.504 272 224.504C245.458 224.504 223.949 245.989 223.949 272.5C223.949 276.623 224.456 280.602 225.433 284.436C226.737 289.535 224.275 294.744 219.495 296.95L172.964 318.615C170.068 319.953 167.098 320.025 164.165 318.796C161.232 317.566 159.168 315.396 158.118 312.394C153.737 299.916 151.347 286.497 151.347 272.5C151.347 242.806 162.101 215.643 179.917 194.629C183.574 190.325 183.321 183.96 179.301 179.945L167.533 168.19C165.324 165.984 162.572 164.899 159.458 165.007C156.344 165.116 153.664 166.382 151.637 168.769C127.557 196.582 113 232.859 113 272.5C113 312.141 127.557 348.418 151.637 376.231C153.701 378.582 156.344 379.884 159.458 379.993C162.572 380.101 165.324 379.016 167.533 376.81L169.488 374.857L186.652 357.713L231.01 313.406C234.739 309.681 240.461 309.139 244.842 312.141C252.555 317.421 261.897 320.532 271.964 320.532C282.03 320.532 291.373 317.457 299.085 312.141C303.431 309.175 309.188 309.681 312.918 313.406L357.276 357.713L374.439 374.857L376.395 376.81C378.603 379.016 381.355 380.101 384.47 379.993C387.584 379.884 390.263 378.618 392.291 376.231C416.371 348.418 430.928 312.141 430.928 272.5H431Z" fill="white"/>
</g>
<defs>
<clipPath id="clip0_45_2">
<rect width="544.22" height="544.22" fill="white"/>
</clipPath>
</defs>
</svg>
